<?xml version="1.0" encoding="UTF-8"?>
<svg id="Calque_1" xmlns="http://www.w3.org/2000/svg" version="1.1" viewBox="0 0 512 512">
  <!-- Generator: Adobe Illustrator 30.3.0, SVG Export Plug-In . SVG Version: 2.1.3 Build 182)  -->
  <defs>
    <style>
      .st0 {
        fill-rule: evenodd;
      }

      .st1 {
        fill: #fff;
      }
    </style>
  </defs>
  <g id="Calque_11" data-name="Calque_1">
    <path class="st0" d="M254.4-.1C113-.1-1.6,114.5-1.6,255.9S113,511.9,254.4,511.9s256-114.6,256-256S395.8-.1,254.4-.1Z"/>
  </g>
  <path class="st1" d="M338.1,295.1l-39.2-39.2,39.2-39.2c12.3-12.3,12.3-32.2,0-44.5-12.3-12.3-32.2-12.3-44.5,0l-39.2,39.2-39.2-39.2c-12.3-12.3-32.2-12.3-44.5,0-6.2,6.2-9.2,14.2-9.2,22.3s3.1,16.1,9.2,22.3l39.2,39.2-39.2,39.2c-12.3,12.3-12.3,32.2,0,44.5,6.2,6.2,14.2,9.2,22.3,9.2s16.1-3.1,22.3-9.2l39.2-39.2,39.2,39.2c12.3,12.3,32.2,12.3,44.5,0,12.3-12.3,12.3-32.2,0-44.5Z"/>
</svg>